<svg xmlns="http://www.w3.org/2000/svg" viewBox="0 0 100 100" width="100" height="100">
  <!-- Background circle -->
  <circle cx="50" cy="50" r="45" fill="#3B82F6" stroke="#1E40AF" stroke-width="2"/>
  
  <!-- Notebook/journal representation -->
  <rect x="25" y="20" width="50" height="60" rx="4" fill="white" stroke="#E5E7EB" stroke-width="1"/>
  
  <!-- Spiral binding holes -->
  <circle cx="35" cy="28" r="2" fill="#D1D5DB"/>
  <circle cx="35" cy="38" r="2" fill="#D1D5DB"/>
  <circle cx="35" cy="48" r="2" fill="#D1D5DB"/>
  <circle cx="35" cy="58" r="2" fill="#D1D5DB"/>
  <circle cx="35" cy="68" r="2" fill="#D1D5DB"/>
  
  <!-- Text lines representing notes -->
  <line x1="42" y1="32" x2="68" y2="32" stroke="#6B7280" stroke-width="1.5" stroke-linecap="round"/>
  <line x1="42" y1="38" x2="65" y2="38" stroke="#6B7280" stroke-width="1.5" stroke-linecap="round"/>
  <line x1="42" y1="44" x2="70" y2="44" stroke="#6B7280" stroke-width="1.5" stroke-linecap="round"/>
  
  <!-- Bullet points for reflection/goals -->
  <circle cx="44" cy="52" r="1.5" fill="#3B82F6"/>
  <line x1="48" y1="52" x2="66" y2="52" stroke="#6B7280" stroke-width="1.2" stroke-linecap="round"/>
  
  <circle cx="44" cy="58" r="1.5" fill="#3B82F6"/>
  <line x1="48" y1="58" x2="62" y2="58" stroke="#6B7280" stroke-width="1.2" stroke-linecap="round"/>
  
  <circle cx="44" cy="64" r="1.5" fill="#3B82F6"/>
  <line x1="48" y1="64" x2="68" y2="64" stroke="#6B7280" stroke-width="1.2" stroke-linecap="round"/>
  
  <!-- Small reflection/thought bubble -->
  <circle cx="65" cy="25" r="8" fill="#EEF2FF" stroke="#3B82F6" stroke-width="1"/>
  <circle cx="62" cy="23" r="1" fill="#3B82F6"/>
  <circle cx="66" cy="26" r="1" fill="#3B82F6"/>
  <circle cx="68" cy="23" r="1" fill="#3B82F6"/>
</svg>
