<svg xmlns="http://www.w3.org/2000/svg" viewBox="0 0 192 192" width="192" height="192">
  <!-- Background circle -->
  <circle cx="96" cy="96" r="86" fill="#3B82F6" stroke="#1E40AF" stroke-width="4"/>
  
  <!-- Notebook/journal representation -->
  <rect x="48" y="38" width="96" height="116" rx="8" fill="white" stroke="#E5E7EB" stroke-width="2"/>
  
  <!-- Spiral binding holes -->
  <circle cx="67" cy="54" r="4" fill="#D1D5DB"/>
  <circle cx="67" cy="73" r="4" fill="#D1D5DB"/>
  <circle cx="67" cy="92" r="4" fill="#D1D5DB"/>
  <circle cx="67" cy="111" r="4" fill="#D1D5DB"/>
  <circle cx="67" cy="130" r="4" fill="#D1D5DB"/>
  
  <!-- Text lines representing notes -->
  <line x1="80" y1="62" x2="130" y2="62" stroke="#6B7280" stroke-width="3" stroke-linecap="round"/>
  <line x1="80" y1="73" x2="125" y2="73" stroke="#6B7280" stroke-width="3" stroke-linecap="round"/>
  <line x1="80" y1="84" x2="134" y2="84" stroke="#6B7280" stroke-width="3" stroke-linecap="round"/>
  
  <!-- Bullet points for reflection/goals -->
  <circle cx="84" cy="100" r="3" fill="#3B82F6"/>
  <line x1="92" y1="100" x2="126" y2="100" stroke="#6B7280" stroke-width="2.5" stroke-linecap="round"/>
  
  <circle cx="84" cy="115" r="3" fill="#3B82F6"/>
  <line x1="92" y1="115" x2="118" y2="115" stroke="#6B7280" stroke-width="2.5" stroke-linecap="round"/>
  
  <circle cx="84" cy="130" r="3" fill="#3B82F6"/>
  <line x1="92" y1="130" x2="130" y2="130" stroke="#6B7280" stroke-width="2.5" stroke-linecap="round"/>
  
  <!-- Small reflection/thought bubble -->
  <circle cx="124" cy="48" r="15" fill="#EEF2FF" stroke="#3B82F6" stroke-width="2"/>
  <circle cx="118" cy="44" r="2" fill="#3B82F6"/>
  <circle cx="126" cy="50" r="2" fill="#3B82F6"/>
  <circle cx="130" cy="44" r="2" fill="#3B82F6"/>
</svg>
